<svg width="151" height="24" viewBox="0 0 151 24" fill="none" xmlns="http://www.w3.org/2000/svg">
<path d="M5.90959e-06 8L18 23H0L5.90959e-06 8Z" fill="#6BE0BF"/>
<path d="M23.9176 23H30.608C34.6648 23 36.4972 20.9801 36.4972 18.304C36.4972 15.6023 34.6051 14.0767 32.875 13.983V13.8125C34.4773 13.4034 35.8153 12.3125 35.8153 10.1307C35.8153 7.54829 34.0256 5.54545 30.3097 5.54545H23.9176V23ZM26.5511 20.7415V15.1506H30.446C32.5597 15.1506 33.8807 16.5142 33.8807 18.1761C33.8807 19.642 32.8835 20.7415 30.3523 20.7415H26.5511ZM26.5511 13.0966V7.78693H30.1477C32.2358 7.78693 33.233 8.88636 33.233 10.3352C33.233 12.0227 31.8523 13.0966 30.0795 13.0966H26.5511ZM39.4162 23H41.9645V9.90909H39.4162V23ZM40.7031 7.8892C41.581 7.8892 42.3139 7.20739 42.3139 6.37216C42.3139 5.53693 41.581 4.84659 40.7031 4.84659C39.8168 4.84659 39.0923 5.53693 39.0923 6.37216C39.0923 7.20739 39.8168 7.8892 40.7031 7.8892ZM47.9411 15.2273C47.9411 13.1392 49.2195 11.946 50.9922 11.946C52.7223 11.946 53.7706 13.0795 53.7706 14.9801V23H56.3189V14.6733C56.3189 11.4347 54.5376 9.73864 51.8615 9.73864C49.8928 9.73864 48.6058 10.6506 48.0007 12.0398H47.8388V9.90909H45.3928V23H47.9411V15.2273ZM59.9411 23H70.9865V20.733H62.5746V15.3892H70.3132V13.1307H62.5746V7.8125H70.8842V5.54545H59.9411V23ZM79.7116 23.2642C82.8054 23.2642 84.8082 21.4062 85.0895 18.858H82.6094C82.2855 20.2727 81.1861 21.108 79.7287 21.108C77.5724 21.108 76.1832 19.3097 76.1832 16.4545C76.1832 13.6506 77.598 11.8864 79.7287 11.8864C81.348 11.8864 82.3366 12.9091 82.6094 14.1364H85.0895C84.8168 11.4943 82.6605 9.73864 79.6861 9.73864C75.9957 9.73864 73.6094 12.517 73.6094 16.5142C73.6094 20.4602 75.9105 23.2642 79.7116 23.2642ZM93.3288 23.2642C97.0192 23.2642 99.4311 20.5625 99.4311 16.5142C99.4311 12.4403 97.0192 9.73864 93.3288 9.73864C89.6385 9.73864 87.2266 12.4403 87.2266 16.5142C87.2266 20.5625 89.6385 23.2642 93.3288 23.2642ZM93.3374 21.125C90.9254 21.125 89.8004 19.0199 89.8004 16.5057C89.8004 14 90.9254 11.8693 93.3374 11.8693C95.7322 11.8693 96.8572 14 96.8572 16.5057C96.8572 19.0199 95.7322 21.125 93.3374 21.125Z" fill="#3C3C36"/>
</svg>
