<svg width="24" height="28" viewBox="0 0 24 28" fill="none" xmlns="http://www.w3.org/2000/svg">
<path d="M21.4286 12.25H20.1429V8.3125C20.1429 3.72969 16.4893 0 12 0C7.51071 0 3.85714 3.72969 3.85714 8.3125V12.25H2.57143C1.15179 12.25 0 13.4258 0 14.875V25.375C0 26.8242 1.15179 28 2.57143 28H21.4286C22.8482 28 24 26.8242 24 25.375V14.875C24 13.4258 22.8482 12.25 21.4286 12.25ZM15.8571 12.25H8.14286V8.3125C8.14286 6.14141 9.87321 4.375 12 4.375C14.1268 4.375 15.8571 6.14141 15.8571 8.3125V12.25Z" fill="#6BE0BF"/>
</svg>
