<svg width="32" height="23" viewBox="0 0 32 23" fill="none" xmlns="http://www.w3.org/2000/svg">
<path d="M31.058 1.14055C29.1185 0.314336 27.1775 6.10776e-08 25.2375 6.10776e-08C19.079 -0.000507751 12.921 3.1657 6.7625 3.1657C5.218 3.1657 3.6745 2.96664 2.13 2.46898C1.9565 2.41313 1.7825 2.38672 1.6125 2.38672C0.752 2.38672 0 3.06312 0 4.00207V20.1129C0 20.7543 0.3615 21.3621 0.942 21.6089C2.8815 22.4357 4.8225 22.75 6.7625 22.75C12.921 22.75 19.0795 19.5838 25.238 19.5838C26.7825 19.5838 28.326 19.7829 29.8705 20.2805C30.044 20.3364 30.218 20.3628 30.388 20.3628C31.2485 20.3628 32.0005 19.6864 32.0005 18.7474V2.63707C32 1.9952 31.6385 1.38785 31.058 1.14055ZM2.4 5.0893C3.406 5.34523 4.456 5.47371 5.536 5.54277C5.242 7.03523 3.95 8.16004 2.4 8.16004V5.0893ZM2.4 19.562V17.1356C4.1185 17.1356 5.509 18.5204 5.5855 20.2536C4.459 20.1617 3.406 19.9332 2.4 19.562ZM16 16.25C13.7905 16.25 12 14.0669 12 11.375C12 8.68258 13.791 6.5 16 6.5C18.209 6.5 20 8.68258 20 11.375C20 14.0679 18.2085 16.25 16 16.25ZM29.6 17.6607C28.724 17.4378 27.8145 17.3129 26.884 17.2321C27.1775 15.9077 28.259 14.9023 29.6 14.7296V17.6607ZM29.6 5.67074C28.0555 5.47219 26.857 4.16254 26.8095 2.54516C27.7865 2.65535 28.714 2.86152 29.6 3.18805V5.67074Z" fill="#6BE0BF"/>
</svg>
