<svg width="24" height="28" viewBox="0 0 24 28" fill="none" xmlns="http://www.w3.org/2000/svg">
<path d="M6 12.25C9.31607 12.25 12 9.51016 12 6.125C12 2.73984 9.31607 0 6 0C2.68393 0 0 2.73984 0 6.125C0 9.51016 2.68393 12.25 6 12.25ZM6 3.5C7.41964 3.5 8.57143 4.67578 8.57143 6.125C8.57143 7.57422 7.41964 8.75 6 8.75C4.58036 8.75 3.42857 7.57422 3.42857 6.125C3.42857 4.67578 4.58036 3.5 6 3.5ZM18 15.75C14.6839 15.75 12 18.4898 12 21.875C12 25.2602 14.6839 28 18 28C21.3161 28 24 25.2602 24 21.875C24 18.4898 21.3161 15.75 18 15.75ZM18 24.5C16.5804 24.5 15.4286 23.3242 15.4286 21.875C15.4286 20.4258 16.5804 19.25 18 19.25C19.4196 19.25 20.5714 20.4258 20.5714 21.875C20.5714 23.3242 19.4196 24.5 18 24.5ZM21.0161 0.0109375L22.7089 0.00546875C23.7482 0 24.3643 1.19766 23.7643 2.07266L4.14643 27.4312C4.02814 27.6035 3.87097 27.7441 3.68821 27.8412C3.50544 27.9382 3.30246 27.989 3.09643 27.9891L1.30714 27.9945C0.2625 27.9945 -0.348214 26.7969 0.251786 25.9273L19.9661 0.56875C20.2071 0.21875 20.5982 0.0109375 21.0161 0.0109375Z" fill="#6BE0BF"/>
</svg>
