<svg width="30" height="30" viewBox="0 0 30 30" fill="none" xmlns="http://www.w3.org/2000/svg">
<path d="M14.5312 0C6.50391 0 0 6.50391 0 14.5312C0 22.5586 6.50391 29.0625 14.5312 29.0625C22.5586 29.0625 29.0625 22.5586 29.0625 14.5312C29.0625 6.50391 22.5586 0 14.5312 0ZM19.9506 18.3398L18.7787 19.8047C18.7018 19.9008 18.6067 19.9809 18.4989 20.0403C18.391 20.0997 18.2725 20.1373 18.1502 20.1509C18.0278 20.1645 17.9039 20.1538 17.7857 20.1196C17.6674 20.0853 17.5571 20.0281 17.4609 19.9512L13.5352 17.0379C13.2609 16.8183 13.0394 16.5398 12.8873 16.223C12.7352 15.9063 12.6562 15.5594 12.6562 15.208V6.09375C12.6562 5.84511 12.755 5.60665 12.9308 5.43084C13.1067 5.25502 13.3451 5.15625 13.5938 5.15625H15.4688C15.7174 5.15625 15.9558 5.25502 16.1317 5.43084C16.3075 5.60665 16.4062 5.84511 16.4062 6.09375V14.5312L19.8047 17.0215C19.9009 17.0984 19.981 17.1936 20.0404 17.3015C20.0998 17.4094 20.1373 17.528 20.1508 17.6504C20.1644 17.7729 20.1537 17.8968 20.1193 18.0151C20.085 18.1334 20.0276 18.2437 19.9506 18.3398Z" fill="#6BE0BF"/>
</svg>
