<svg width="29" height="30" viewBox="0 0 29 30" fill="none" xmlns="http://www.w3.org/2000/svg">
<path d="M26.3965 4.90284L15.1465 0.215336C14.8038 0.073175 14.4364 0 14.0654 0C13.6944 0 13.3271 0.073175 12.9844 0.215336L1.73437 4.90284C0.685547 5.33643 0 6.36182 0 7.49854C0 19.1294 6.70898 27.1685 12.9785 29.7817C13.6699 30.0689 14.4492 30.0689 15.1406 29.7817C20.1621 27.6899 28.125 20.4653 28.125 7.49854C28.125 6.36182 27.4395 5.33643 26.3965 4.90284ZM14.0684 26.1489L14.0625 3.82471L24.3691 8.11963C24.1758 16.9907 19.5586 23.4185 14.0684 26.1489Z" fill="#6BE0BF"/>
</svg>
