<svg width="38" height="27" viewBox="0 0 38 27" fill="none" xmlns="http://www.w3.org/2000/svg">
<path d="M5.7 11.25C7.79594 11.25 9.5 9.56836 9.5 7.5C9.5 5.43164 7.79594 3.75 5.7 3.75C3.60406 3.75 1.9 5.43164 1.9 7.5C1.9 9.56836 3.60406 11.25 5.7 11.25ZM32.3 11.25C34.3959 11.25 36.1 9.56836 36.1 7.5C36.1 5.43164 34.3959 3.75 32.3 3.75C30.2041 3.75 28.5 5.43164 28.5 7.5C28.5 9.56836 30.2041 11.25 32.3 11.25ZM34.2 13.125H30.4C29.355 13.125 28.4109 13.541 27.7222 14.2148C30.115 15.5098 31.8131 17.8477 32.1812 20.625H36.1C37.1509 20.625 38 19.7871 38 18.75V16.875C38 14.8066 36.2959 13.125 34.2 13.125ZM19 13.125C22.6753 13.125 25.65 10.1895 25.65 6.5625C25.65 2.93555 22.6753 0 19 0C15.3247 0 12.35 2.93555 12.35 6.5625C12.35 10.1895 15.3247 13.125 19 13.125ZM23.56 15H23.0672C21.8322 15.5859 20.4606 15.9375 19 15.9375C17.5394 15.9375 16.1737 15.5859 14.9328 15H14.44C10.6637 15 7.6 18.0234 7.6 21.75V23.4375C7.6 24.9902 8.87656 26.25 10.45 26.25H27.55C29.1234 26.25 30.4 24.9902 30.4 23.4375V21.75C30.4 18.0234 27.3362 15 23.56 15ZM10.2778 14.2148C9.58906 13.541 8.645 13.125 7.6 13.125H3.8C1.70406 13.125 0 14.8066 0 16.875V18.75C0 19.7871 0.849062 20.625 1.9 20.625H5.81281C6.18687 17.8477 7.885 15.5098 10.2778 14.2148Z" fill="#6BE0BF"/>
</svg>
