<svg width="56" height="58" viewBox="0 0 56 58" fill="none" xmlns="http://www.w3.org/2000/svg">
<path d="M28 0C12.5323 0 0 12.9798 0 29C0 45.0202 12.5323 58 28 58C43.4677 58 56 45.0202 56 29C56 12.9798 43.4677 0 28 0ZM28 52.3871C15.5242 52.3871 5.41935 41.9214 5.41935 29C5.41935 16.0786 15.5242 5.6129 28 5.6129C40.4758 5.6129 50.5806 16.0786 50.5806 29C50.5806 41.9214 40.4758 52.3871 28 52.3871ZM34.9774 40.179L25.3919 32.9641C25.0419 32.6952 24.8387 32.2742 24.8387 31.8298V12.629C24.8387 11.8573 25.4484 11.2258 26.1935 11.2258H29.8064C30.5516 11.2258 31.1613 11.8573 31.1613 12.629V29.1988L38.7032 34.8819C39.3129 35.3379 39.4371 36.2149 38.9968 36.8464L36.8742 39.875C36.4339 40.4948 35.5871 40.6351 34.9774 40.179Z" fill="#3C3C36"/>
</svg>
