<svg width="72" height="58" viewBox="0 0 72 58" fill="none" xmlns="http://www.w3.org/2000/svg">
<path d="M14.401 10.875C17.3821 10.875 19.8008 8.43945 19.8008 5.4375C19.8008 2.43555 17.3821 0 14.401 0C11.4199 0 9.00126 2.43555 9.00126 5.4375C9.00126 8.43945 11.4199 10.875 14.401 10.875ZM57.599 10.875C60.5801 10.875 62.9987 8.43945 62.9987 5.4375C62.9987 2.43555 60.5801 0 57.599 0C54.6179 0 52.1992 2.43555 52.1992 5.4375C52.1992 8.43945 54.6179 10.875 57.599 10.875ZM71.7396 53.027L66.7898 40.566L62.1663 45.8223L61.9413 47.884L65.0574 55.723C65.6199 57.1391 66.9698 58 68.3985 58C68.8485 58 69.2984 57.9207 69.7372 57.7395C71.5821 56.9918 72.482 54.8848 71.7396 53.027ZM67.8923 29.2605L65.8111 20.1754C65.2936 17.9098 63.7187 16.0066 61.5925 15.0891C59.5114 14.1828 57.2053 14.3301 55.2816 15.4629C52.728 16.9809 50.8156 19.3711 49.8706 22.1918L48.5994 26.032L46.7995 27.1875V16.3125C46.7995 15.3156 45.9895 14.5 44.9996 14.5H27.0004C26.0105 14.5 25.2005 15.3156 25.2005 16.3125V27.1875L23.3893 26.032L22.1182 22.1918C21.1844 19.3598 19.2608 16.9809 16.7072 15.4629C14.7722 14.3301 12.4774 14.1828 10.3962 15.0891C8.27005 16.0066 6.69512 17.9098 6.17765 20.1754L4.10774 29.2605C3.59027 31.5262 4.18649 33.9277 5.72767 35.6836L13.2873 44.2816L14.4235 54.7715C14.626 56.618 16.1784 58 18.0008 58C18.1358 58 18.2596 57.9887 18.3946 57.9773C20.3745 57.7621 21.7919 55.9723 21.5782 53.9785L20.442 43.466C20.2732 41.9934 19.6658 40.6227 18.6871 39.5012L13.816 33.9504L15.7959 25.9867L16.5609 28.2977C17.0221 29.7137 17.8996 30.9484 19.317 31.9906L25.0655 35.6723C25.583 36.0008 26.4267 36.1934 27.0004 36.2387H44.9996C45.5733 36.1934 46.417 36.0008 46.9345 35.6723L52.683 31.9906C54.1004 30.9484 54.9779 29.725 55.4391 28.2977L56.2041 25.9867L58.184 33.9504L53.3129 39.5012C52.3342 40.6227 51.7268 41.9934 51.558 43.466L50.4218 53.9785C50.2081 55.9723 51.6368 57.7621 53.6054 57.9773C53.7404 57.9887 53.8642 58 53.9992 58C55.8103 58 57.374 56.6293 57.5765 54.7715L58.7127 44.2816L66.2723 35.6836C67.8023 33.9277 68.4097 31.5262 67.8923 29.2605ZM5.21019 40.566L0.260423 53.027C-0.482043 54.8848 0.417915 56.9918 2.26283 57.7395C4.15274 58.4871 6.21139 57.5469 6.94261 55.723L10.0587 47.884L9.83372 45.8223L5.21019 40.566Z" fill="#3C3C36"/>
</svg>
