<svg width="65" height="52" viewBox="0 0 65 52" fill="none" xmlns="http://www.w3.org/2000/svg">
<path d="M63.375 42.25H38.7502C38.675 44.262 37.2562 45.5 35.425 45.5H29.25C27.3518 45.5 25.8964 43.7257 25.9218 42.25H1.625C0.73125 42.25 0 42.9813 0 43.875V45.5C0 49.075 2.925 52 6.5 52H58.5C62.075 52 65 49.075 65 45.5V43.875C65 42.9813 64.2688 42.25 63.375 42.25ZM58.5 4.875C58.5 2.19375 56.3063 0 53.625 0H11.375C8.69375 0 6.5 2.19375 6.5 4.875V39H58.5V4.875ZM52 32.5H13V6.5H52V32.5Z" fill="#3C3C36"/>
</svg>
